<?xml version="1.0" encoding="utf-8"?>
<!-- Generator: Adobe Illustrator 24.0.3, SVG Export Plug-In . SVG Version: 6.00 Build 0)  -->
<svg version="1.1" id="图层_1" xmlns="http://www.w3.org/2000/svg" xmlns:xlink="http://www.w3.org/1999/xlink" x="0px" y="0px"
	 viewBox="0 0 1316 191" style="enable-background:new 0 0 1316 191;" xml:space="preserve">
<style type="text/css">
	.st0{font-family:'Chalkboard';}
	.st1{font-size:120px;}
</style>
<text transform="matrix(1 0 0 1 380.3159 129.6841)" class="st0 st1">C++ Type Parser</text>
<g>
	<g>
		<path d="M53.7,99.3v-7.7l44.8-30.2V71l-36,24.2v0.5l36,24.2v9.6L53.7,99.3z"/>
		<path d="M125.7,99.3v-7.7l44.8-30.2V71l-36,24.2v0.5l36,24.2v9.6L125.7,99.3z"/>
		<path d="M196.1,120l36-24.2v-0.5l-36-24.2v-9.6l44.8,30.2v7.7l-44.8,30.2V120z"/>
		<path d="M268.1,120l36-24.2v-0.5l-36-24.2v-9.6l44.8,30.2v7.7l-44.8,30.2V120z"/>
	</g>
</g>
</svg>
